<svg width="15" height="15" viewBox="0 0 15 15" fill="none" xmlns="http://www.w3.org/2000/svg">
<path d="M14.3389 6.01029C14.0312 5.70721 13.7177 5.40412 13.4043 5.10103C13.3929 4.67785 13.3872 4.25467 13.3701 3.83149C13.353 3.26535 13.1079 2.72207 12.6862 2.30461C12.2644 1.88715 11.723 1.64125 11.1588 1.62409C10.7371 1.61266 10.3153 1.60122 9.88792 1.58978C9.58017 1.28098 9.27812 0.966451 8.98176 0.657644C8.57713 0.234464 8.05281 0 7.4943 0C6.93579 0 6.41147 0.234464 6.00684 0.651925C5.70479 0.960732 5.40274 1.27526 5.09499 1.58978C4.67325 1.60122 4.25152 1.60694 3.82409 1.62409C2.66147 1.66413 1.65843 2.67061 1.61854 3.83721C1.60714 4.26039 1.59574 4.68357 1.58435 5.10675C1.2709 5.40984 0.963146 5.71864 0.649696 6.01601C0.233663 6.42204 0 6.94815 0 7.50286C0 8.05757 0.233663 8.5894 0.649696 8.99543C0.957447 9.29851 1.2709 9.6016 1.58435 9.90469C1.59005 10.3279 1.60144 10.751 1.61854 11.1742C1.63564 11.7404 1.8807 12.2836 2.29673 12.7011C2.71277 13.1243 3.25418 13.3645 3.82409 13.3816C4.24582 13.3931 4.66755 13.4045 5.09499 13.4159C5.40274 13.7247 5.70479 14.0393 6.00684 14.3481C6.41147 14.7655 6.93579 15 7.5 15C8.06421 15 8.58283 14.7655 8.99316 14.3481C9.29521 14.0393 9.59726 13.7247 9.90502 13.4159C10.3267 13.4045 10.7485 13.3988 11.1759 13.3816C12.3385 13.3416 13.3416 12.3351 13.3815 11.1685C13.3929 10.7453 13.4043 10.3222 13.4157 9.89897C13.7291 9.59016 14.0369 9.28708 14.3503 8.98971C14.7663 8.58368 15 8.05757 15 7.49714C15 6.93671 14.7606 6.4106 14.3503 6.00458L14.3389 6.01029ZM11.2158 6.54785C9.95631 7.86313 8.67401 9.20702 7.40881 10.5452C7.20365 10.7625 6.91299 10.8883 6.61094 10.8883C6.30889 10.8883 6.02394 10.7625 5.81307 10.5452C5.14058 9.8475 4.46239 9.14983 3.78419 8.45787C3.35676 8.02897 3.36246 7.33702 3.78419 6.90812C3.78989 6.9024 3.79559 6.89668 3.80129 6.89096C4.24582 6.46207 4.94681 6.4735 5.37994 6.90812C5.78457 7.32558 6.18921 7.73732 6.58815 8.15479C7.59119 7.10255 8.59422 6.04461 9.58587 5.00381C10.0076 4.55776 10.7086 4.55204 11.1588 4.98094C11.609 5.40984 11.6375 6.10751 11.2101 6.54785H11.2158Z" fill="#11CABE"/>
</svg>
