<svg width="15" height="15" viewBox="0 0 15 15" fill="none" xmlns="http://www.w3.org/2000/svg">
<g clip-path="url(#clip0_1311_922)">
<path d="M7.5 15C11.6421 15 15 11.6421 15 7.5C15 3.35786 11.6421 0 7.5 0C3.35786 0 0 3.35786 0 7.5C0 11.6421 3.35786 15 7.5 15Z" fill="#CCCCCC"/>
<path d="M6.31201 10.8457C6.31201 10.1387 6.80764 9.63575 7.50735 9.63575C8.20706 9.63575 8.68082 10.1387 8.69539 10.8457C8.69539 11.5381 8.22892 12.0556 7.50735 12.0556C6.78577 12.0556 6.31201 11.5381 6.31201 10.8457ZM6.74933 8.9652L6.44321 2.9375H8.55691L8.26536 8.9652H6.74933Z" fill="black"/>
</g>
<defs>
<clipPath id="clip0_1311_922">
<rect width="15" height="15" fill="white"/>
</clipPath>
</defs>
</svg>
