<svg width="15" height="15" viewBox="0 0 15 15" fill="none" xmlns="http://www.w3.org/2000/svg">
<g clip-path="url(#clip0_1341_3073)">
<path d="M13.0495 3.82031H5.71429C4.67033 3.82031 3.81868 4.67196 3.81868 5.71592V13.106C3.81868 14.15 4.67033 15.0016 5.71429 15.0016H13.0495C14.0934 15.0016 14.9451 14.15 14.9451 13.106V5.71592C14.9451 4.67196 14.0934 3.82031 13.0495 3.82031ZM5.54945 5.71592C5.54945 5.61976 5.63187 5.53735 5.72802 5.53735H13.0632C13.1593 5.53735 13.2418 5.61976 13.2418 5.71592V13.106C13.2418 13.2022 13.1593 13.2846 13.0632 13.2846H5.72802C5.63187 13.2846 5.54945 13.2022 5.54945 13.106V5.71592Z" fill="black"/>
<path d="M9.23077 0H1.8956C0.851648 0 0 0.851648 0 1.8956V9.28571C0 10.3297 0.851648 11.1813 1.8956 11.1813H2.88462V9.46429H1.8956C1.79945 9.46429 1.71703 9.38187 1.71703 9.28571V1.8956C1.71703 1.79945 1.79945 1.71703 1.8956 1.71703H9.23077C9.32692 1.71703 9.40934 1.79945 9.40934 1.8956V2.89835H11.1264V1.8956C11.1264 0.851648 10.2747 0 9.23077 0Z" fill="black"/>
</g>
<defs>
<clipPath id="clip0_1341_3073">
<rect width="14.9451" height="15" fill="white"/>
</clipPath>
</defs>
</svg>
