<svg width="15" height="12" viewBox="0 0 15 12" fill="none" xmlns="http://www.w3.org/2000/svg">
<g clip-path="url(#clip0_1336_997)">
<path d="M6.23293 0H0.383959C0.171904 0 0 0.171904 0 0.383959V1.31826C0 1.53031 0.171904 1.70222 0.383959 1.70222H6.23293C6.44499 1.70222 6.61689 1.53031 6.61689 1.31826V0.383959C6.61689 0.171904 6.44499 0 6.23293 0Z" fill="#626262"/>
<path d="M6.23293 3.33984H0.383959C0.171904 3.33984 0 3.51175 0 3.7238V4.6581C0 4.87016 0.171904 5.04206 0.383959 5.04206H6.23293C6.44499 5.04206 6.61689 4.87016 6.61689 4.6581V3.7238C6.61689 3.51175 6.44499 3.33984 6.23293 3.33984Z" fill="#626262"/>
<path d="M6.23293 6.67969H0.383959C0.171904 6.67969 0 6.85159 0 7.06365V7.99795C0 8.21 0.171904 8.38191 0.383959 8.38191H6.23293C6.44499 8.38191 6.61689 8.21 6.61689 7.99795V7.06365C6.61689 6.85159 6.44499 6.67969 6.23293 6.67969Z" fill="#626262"/>
<path d="M6.23293 10.0195H0.383959C0.171904 10.0195 0 10.1914 0 10.4035V11.3378C0 11.5498 0.171904 11.7217 0.383959 11.7217H6.23293C6.44499 11.7217 6.61689 11.5498 6.61689 11.3378V10.4035C6.61689 10.1914 6.44499 10.0195 6.23293 10.0195Z" fill="#1264FF"/>
<path d="M14.1937 0H9.12541C8.67745 0 8.31909 0.358362 8.31909 0.806314V10.9172C8.31909 11.3652 8.67745 11.7235 9.12541 11.7235H14.1937C14.6416 11.7235 15 11.3652 15 10.9172V0.806314C15 0.358362 14.6416 0 14.1937 0ZM13.3362 10.0597H9.98291V1.66382H13.3362V10.0597Z" fill="#626262"/>
</g>
<defs>
<clipPath id="clip0_1336_997">
<rect width="15" height="11.7107" fill="white"/>
</clipPath>
</defs>
</svg>
