<svg width="15" height="15" viewBox="0 0 15 15" fill="none" xmlns="http://www.w3.org/2000/svg">
<g clip-path="url(#clip0_1336_1005)">
<path d="M14.0044 0H0.978982C0.431416 0 0 0.448009 0 0.978982V14.0044C0 14.552 0.448009 14.9834 0.978982 14.9834H14.0044C14.552 14.9834 14.9834 14.5354 14.9834 14.0044V0.978982C14.9834 0.431416 14.5354 0 14.0044 0ZM13.3241 13.3241H1.65929V1.65929H13.3241V13.3241Z" fill="#626262"/>
<path d="M11.7146 4.17969H7.5332V5.85557H11.7146V4.17969Z" fill="#626262"/>
<path d="M11.7146 9.21094H7.5332V10.8868H11.7146V9.21094Z" fill="#1264FF"/>
<path d="M5.01106 6.70326C5.97328 6.70326 6.75331 5.92323 6.75331 4.96101C6.75331 3.99878 5.97328 3.21875 5.01106 3.21875C4.04883 3.21875 3.2688 3.99878 3.2688 4.96101C3.2688 5.92323 4.04883 6.70326 5.01106 6.70326Z" fill="#626262"/>
<path d="M5.01106 11.7814C5.97328 11.7814 6.75331 11.0014 6.75331 10.0391C6.75331 9.07691 5.97328 8.29688 5.01106 8.29688C4.04883 8.29688 3.2688 9.07691 3.2688 10.0391C3.2688 11.0014 4.04883 11.7814 5.01106 11.7814Z" fill="#1264FF"/>
</g>
<defs>
<clipPath id="clip0_1336_1005">
<rect width="15" height="15" fill="white"/>
</clipPath>
</defs>
</svg>
