<svg width="15" height="15" viewBox="0 0 15 15" fill="none" xmlns="http://www.w3.org/2000/svg">
<g clip-path="url(#clip0_1341_2761)">
<path d="M7.49543 14.2841C6.36548 14.2841 5.23369 14.286 4.10374 14.2841C3.7801 14.2841 3.45832 14.2445 3.15688 14.1144C2.53735 13.8466 2.15823 13.375 2.03248 12.6979C1.9659 12.3395 1.99549 11.9793 2.00844 11.619C2.02693 11.0739 2.13789 10.5439 2.24885 10.0139C2.34871 9.52915 2.54475 9.0859 2.80735 8.67472C3.17537 8.09756 3.71538 7.8052 4.36819 7.70713C4.46066 7.69392 4.55498 7.67506 4.64744 7.68072C4.71772 7.68449 4.79354 7.7109 4.85642 7.74862C5.14862 7.92781 5.43341 8.12019 5.72931 8.29372C6.33219 8.64832 6.98501 8.81807 7.68036 8.77657C8.30914 8.73885 8.89723 8.55589 9.42799 8.2013C9.62217 8.07115 9.82375 7.9561 10.0124 7.81841C10.1936 7.68638 10.3841 7.66563 10.5986 7.69392C11.4327 7.80332 11.9949 8.2824 12.3758 9.02177C12.6625 9.57819 12.8104 10.1742 12.8974 10.791C12.9806 11.37 13.0268 11.9529 12.975 12.5376C12.9103 13.26 12.5423 13.7749 11.9024 14.0861C11.5843 14.2408 11.2422 14.286 10.8964 14.2879C9.76272 14.2936 8.62907 14.2879 7.49543 14.2879V14.2841Z" fill="#444D57"/>
<path d="M7.53604 8.14869C5.82725 8.16567 4.49388 6.80009 4.49573 5.13462C4.49573 3.39748 5.82171 2.06019 7.43988 2.04699C9.21894 2.0319 10.495 3.48424 10.495 5.10633C10.495 6.78689 9.11353 8.18264 7.53789 8.14869H7.53604Z" fill="#444D57"/>
<path d="M4.01303 4.60199C3.88727 5.5262 4.0981 6.35611 4.58632 7.12C4.42543 7.14452 4.27378 7.1615 4.12399 7.18979C3.51925 7.30296 3.02178 7.60852 2.60753 8.06496C2.55205 8.12721 2.49842 8.1555 2.4152 8.15361C2.10451 8.14796 1.79567 8.15739 1.48498 8.14984C1.1373 8.1423 0.800722 8.08194 0.49743 7.89144C0.199686 7.70471 0.0203005 7.42933 0.00550574 7.07662C-0.0111383 6.71071 0.00550574 6.34291 0.0239991 5.97699C0.0443419 5.5809 0.101671 5.19047 0.225577 4.81135C0.284756 4.63217 0.35688 4.45676 0.488184 4.31907C0.556609 4.24739 0.641679 4.18704 0.728598 4.14177C0.841408 4.0833 0.959765 4.07953 1.07812 4.1512C1.42395 4.36056 1.79382 4.51334 2.17848 4.63783C2.67225 4.79815 3.16788 4.80381 3.66905 4.68687C3.77816 4.66235 3.88542 4.63217 4.01303 4.6001V4.60199Z" fill="#444D57"/>
<path d="M10.41 7.12258C10.6559 6.74346 10.8316 6.34737 10.9333 5.91732C11.0369 5.48728 11.0313 5.05158 10.9944 4.60079C11.1072 4.62908 11.2089 4.6536 11.3087 4.68001C11.919 4.83467 12.5145 4.78375 13.0915 4.54043C13.3541 4.42915 13.6075 4.29901 13.8645 4.17075C14.0772 4.06512 14.2547 4.08587 14.4323 4.24619C14.5599 4.36125 14.6413 4.50837 14.706 4.66492C14.8299 4.96482 14.8965 5.2798 14.9242 5.60234C14.9612 6.03049 14.9852 6.46242 14.9982 6.89246C15.0019 7.03958 14.9723 7.19236 14.9279 7.33382C14.8095 7.71671 14.521 7.93362 14.1641 8.05056C13.9736 8.1128 13.7665 8.13732 13.5649 8.14487C13.221 8.15996 12.877 8.14676 12.5312 8.15053C12.4701 8.15053 12.4257 8.13544 12.3851 8.0864C11.8783 7.48472 11.2385 7.16218 10.4599 7.13389C10.4488 7.13389 10.4359 7.13012 10.4044 7.12446L10.41 7.12258Z" fill="#444D57"/>
<path d="M13.9939 2.04083C14.029 3.08953 13.1173 4.07598 12.0059 4.07033C10.9665 4.06467 10.0049 3.20458 10.0049 2.0446C10.0086 0.939314 10.8667 0.0037826 12.0077 1.02945e-05C13.1931 -0.00376201 14.0235 1.02985 13.9939 2.04083Z" fill="#444D57"/>
<path d="M0.993066 2.04082C0.969024 1.02796 1.79383 -0.00188357 2.98296 2.58693e-06C4.14249 0.00188874 4.98024 0.982688 4.98209 2.04648C4.98394 3.11593 4.08516 4.07598 2.97371 4.07032C1.8826 4.06655 0.963476 3.10461 0.994915 2.04082H0.993066Z" fill="#444D57"/>
</g>
<defs>
<clipPath id="clip0_1341_2761">
<rect width="15" height="14.2857" fill="white"/>
</clipPath>
</defs>
</svg>
