<svg width="10" height="10" viewBox="0 0 10 10" fill="none" xmlns="http://www.w3.org/2000/svg">
<g clip-path="url(#clip0_1289_540)">
<path d="M-0.000116982 4.50933C0.00782268 4.46963 0.0157623 4.42994 0.0276718 4.39421C0.118978 4.12823 0.428625 4.0131 0.674754 4.15205C0.718422 4.17984 0.75812 4.21557 0.797819 4.25129C0.837517 4.28702 0.869276 4.32275 0.912944 4.36245C0.912944 4.33069 0.916914 4.30687 0.916914 4.27908C0.932793 4.01707 0.968521 3.75506 1.02807 3.501C1.13128 3.06828 1.29405 2.65939 1.51636 2.27432C1.68309 1.98849 1.87761 1.72251 2.09992 1.48035C2.34208 1.21437 2.61203 0.980154 2.90977 0.781663C3.26705 0.539503 3.65213 0.356891 4.06499 0.221917C4.327 0.134581 4.59695 0.0790029 4.87086 0.0432745C5.16066 -0.000393671 5.44649 -0.00833333 5.73629 0.00754599C6.17297 0.0353348 6.59377 0.122671 7.00266 0.269555C7.41552 0.420408 7.8006 0.62287 8.14994 0.884878C8.56678 1.19453 8.92406 1.56372 9.21386 1.99643C9.46793 2.36959 9.65848 2.77055 9.79345 3.20326C9.90064 3.54466 9.96416 3.89401 9.984 4.25129C10.0039 4.55697 9.99194 4.85868 9.95225 5.16435C9.90858 5.48988 9.82918 5.81144 9.71406 6.11711C9.44014 6.85153 9.00743 7.47479 8.41195 7.99087C8.06658 8.28861 7.68547 8.53077 7.26467 8.71338C6.90342 8.86821 6.53025 8.97936 6.14518 9.03891C5.83156 9.08655 5.51795 9.10242 5.20433 9.08655C4.72398 9.06273 4.25554 8.95951 3.80695 8.78484C3.39012 8.62208 3.00504 8.4077 2.6557 8.12982C2.50485 8.01072 2.35399 7.88369 2.22299 7.74077C2.00862 7.51052 2.09595 7.12942 2.38972 7.01429C2.56042 6.94681 2.71525 6.97857 2.85419 7.09369C2.94153 7.16515 3.01695 7.24852 3.10429 7.31997C3.43776 7.6058 3.81092 7.82017 4.22378 7.96705C4.4977 8.0663 4.77956 8.12982 5.06936 8.15761C5.33136 8.18539 5.59734 8.18142 5.85935 8.15761C6.24442 8.11394 6.61362 8.01072 6.96296 7.85193C7.28055 7.70505 7.57035 7.51846 7.83236 7.28821C8.142 7.01826 8.40004 6.70465 8.6025 6.35133C8.80893 5.99008 8.94788 5.60898 9.0233 5.20008C9.07888 4.8825 9.09476 4.56491 9.07094 4.24732C9.02728 3.69155 8.86054 3.1715 8.57868 2.69115C8.27698 2.17904 7.87205 1.77015 7.37186 1.45256C6.98678 1.2104 6.57392 1.05161 6.1293 0.968245C5.82759 0.908697 5.52192 0.892818 5.21227 0.912667C4.70016 0.944426 4.21584 1.08337 3.75931 1.31759C3.37821 1.51608 3.04474 1.77809 2.75494 2.09171C2.4453 2.42914 2.21108 2.81422 2.04831 3.24296C1.91731 3.58833 1.83791 3.94562 1.81806 4.31481C1.81806 4.32275 1.81806 4.33069 1.81806 4.3426C1.826 4.33466 1.83394 4.32672 1.84188 4.32275C1.88555 4.27908 1.92525 4.23541 1.97289 4.19572C2.11183 4.08059 2.26666 4.04883 2.43339 4.11632C2.59615 4.17984 2.69143 4.3029 2.71525 4.4736C2.73907 4.62843 2.68746 4.75943 2.5763 4.87059C2.29444 5.15244 2.01259 5.4343 1.73073 5.71616C1.67912 5.76777 1.63148 5.81938 1.56797 5.85113C1.4052 5.93053 1.24641 5.92259 1.09556 5.81938C1.02807 5.77174 0.976461 5.71219 0.916914 5.65264C0.658875 5.39857 0.404806 5.14054 0.150737 4.88647C0.0673701 4.8031 0.0117925 4.71179 -0.00408681 4.5927C-0.00408681 4.58873 -0.00408681 4.58476 -0.00805664 4.58079C-0.00805664 4.553 -0.00805664 4.52918 -0.00805664 4.50139L-0.000116982 4.50933Z" fill="#292D32"/>
<path d="M6.13334 5.45624C5.76018 5.45624 5.38701 5.45624 5.01385 5.45624C4.85109 5.45624 4.72405 5.39272 4.62878 5.26172C4.57717 5.19026 4.54938 5.11086 4.54541 5.02353C4.54541 5.01162 4.54541 4.99574 4.54541 4.98383C4.54541 4.2375 4.54541 3.49117 4.54541 2.74485C4.54541 2.60193 4.59305 2.47887 4.70023 2.38756C4.82727 2.27641 4.97812 2.24465 5.13691 2.30022C5.30762 2.3558 5.41083 2.47887 5.44259 2.65751C5.45053 2.68927 5.45053 2.725 5.45053 2.76072C5.45053 3.34429 5.45053 3.93182 5.45053 4.51539C5.45053 4.53921 5.46244 4.55112 5.48626 4.55112C6.07379 4.55112 6.66133 4.55112 7.24886 4.55112C7.34414 4.55112 7.43148 4.57097 7.51484 4.62258C7.68158 4.72976 7.76097 4.93222 7.70936 5.12674C7.65776 5.31729 7.48705 5.45227 7.29253 5.46021C7.18932 5.46021 7.09007 5.46021 6.98686 5.46021C6.70103 5.46021 6.41917 5.46021 6.13334 5.46021V5.45624Z" fill="#292D32"/>
</g>
<defs>
<clipPath id="clip0_1289_540">
<rect width="10" height="9.09091" fill="white"/>
</clipPath>
</defs>
</svg>
