<svg width="16" height="16" viewBox="0 0 16 16" fill="none" xmlns="http://www.w3.org/2000/svg">
<g clip-path="url(#clip0_1341_3561)">
<path d="M15.47 13.4495L12.75 10.7995C13.73 9.31946 14.17 7.44946 13.76 5.46946C13.19 2.78946 11.01 0.639457 8.32001 0.129457C3.43001 -0.800543 -0.79999 3.41946 0.13001 8.31946C0.66001 11.1095 2.95001 13.3395 5.75001 13.8195C7.91001 14.1795 9.92001 13.5495 11.41 12.2995L14.07 14.8895C14.47 15.2795 15.1 15.2695 15.48 14.8695C15.87 14.4695 15.86 13.8395 15.46 13.4595L15.47 13.4495ZM2.00001 6.95946C2.00001 4.21946 4.22001 1.99946 6.96001 1.99946C9.70001 1.99946 11.92 4.21946 11.92 6.95946C11.92 9.69946 9.70001 11.9195 6.96001 11.9195C4.22001 11.9195 2.00001 9.68946 2.00001 6.95946Z" fill="black"/>
</g>
<defs>
<clipPath id="clip0_1341_3561">
<rect width="15.77" height="15.17" fill="white"/>
</clipPath>
</defs>
</svg>
