<svg width="13" height="13" viewBox="0 0 13 13" fill="none" xmlns="http://www.w3.org/2000/svg">
<path d="M6.19386 9.27517C6.0578 9.30433 5.9509 9.38208 5.85371 9.47927C5.54271 9.79026 5.23171 10.1013 4.92072 10.4123C4.59028 10.7427 4.20154 10.9176 3.72532 10.9273C3.07417 10.9371 2.43274 10.5289 2.19949 9.92633C1.93709 9.24602 2.05371 8.63374 2.5688 8.10893C3.21023 7.44806 3.8711 6.80663 4.52225 6.15548C5.24143 5.42658 6.30077 5.58208 6.84501 6.08745C6.89361 6.13604 6.95192 6.18464 7.01023 6.22351C7.24348 6.36929 7.53504 6.34985 7.75857 6.17492C7.97238 6.0097 8.05985 5.6987 7.96266 5.44602C7.90435 5.29052 7.79744 5.18361 7.68082 5.07671C6.51458 4.04653 4.77494 4.07569 3.65729 5.15446C2.94783 5.84448 2.24808 6.54423 1.55806 7.25369C1.02353 7.80766 0.761126 8.48796 0.751408 9.32377C0.761126 9.43067 0.770845 9.60561 0.790282 9.77083C0.984656 11.0245 2.03427 12.1325 3.50179 12.2394C4.38619 12.2977 5.16368 12.0158 5.80512 11.3841C6.04808 11.1412 6.29105 10.8982 6.54374 10.6552C6.64092 10.558 6.74783 10.4609 6.8353 10.3637C7.02967 10.1499 7.06854 9.82914 6.92276 9.58617C6.77698 9.33349 6.48542 9.21686 6.20358 9.28489L6.19386 9.27517Z" fill="black"/>
<path d="M11.6655 1.95678C11.0338 1.12097 10.1688 0.712789 9.10947 0.771101C8.39028 0.809976 7.77801 1.0821 7.2532 1.56803C6.90333 1.89847 6.57289 2.23862 6.23274 2.57877C6.19386 2.61765 6.14527 2.66624 6.11611 2.71484C5.96062 2.93836 5.96062 3.23964 6.11611 3.46317C6.28133 3.69642 6.55345 3.78389 6.82558 3.71586C6.97136 3.67698 7.06854 3.58952 7.17545 3.49233C7.49617 3.18133 7.80716 2.86062 8.12788 2.54962C8.49719 2.18031 8.95397 2.02481 9.46906 2.08312C10.5187 2.19975 11.1212 3.17161 10.8977 4.1046C10.82 4.42532 10.6547 4.68772 10.4215 4.92097C9.87724 5.4555 9.34271 5.99975 8.79847 6.54399C8.64297 6.69949 8.49719 6.86471 8.32225 6.99105C7.78773 7.40895 7.19489 7.46726 6.57289 7.19514C6.3688 7.10767 6.2133 6.95218 6.03837 6.81611C5.82455 6.66062 5.59131 6.64118 5.35806 6.7578C5.12481 6.87443 5.0179 7.0688 4.99847 7.32148C4.98875 7.52558 5.0665 7.69079 5.21228 7.82686C5.78568 8.38082 6.47571 8.65294 7.2532 8.67238C8.05985 8.65294 8.74987 8.39054 9.32328 7.84629C9.43018 7.74911 9.52737 7.6422 9.63427 7.5353C10.2174 6.95218 10.8102 6.36906 11.3836 5.78593C12.4041 4.74604 12.5207 3.1133 11.646 1.95678H11.6655Z" fill="black"/>
</svg>
