<svg width="21" height="21" viewBox="0 0 21 21" fill="none" xmlns="http://www.w3.org/2000/svg">
<g clip-path="url(#clip0_1311_1124)">
<path d="M10.5021 21.0042C16.3022 21.0042 21.0042 16.3022 21.0042 10.5021C21.0042 4.70195 16.3022 0 10.5021 0C4.70195 0 0 4.70195 0 10.5021C0 16.3022 4.70195 21.0042 10.5021 21.0042Z" fill="url(#paint0_linear_1311_1124)"/>
<path d="M20.716 12.1571C21.6317 6.51637 17.8012 1.20145 12.1605 0.285836C6.51987 -0.629776 1.20494 3.20065 0.289331 8.84133C-0.62628 14.482 3.20414 19.7969 8.84483 20.7125C14.4855 21.6282 19.8004 17.7977 20.716 12.1571Z" fill="url(#paint1_linear_1311_1124)"/>
<path d="M2.23364 10.6573C2.23364 6.09773 5.94248 2.38889 10.502 2.38889C15.0616 2.38889 18.7705 6.09773 18.7705 10.6531C18.7705 11.177 18.7202 11.6882 18.628 12.1827C18.7621 11.5918 18.8375 10.9758 18.8375 10.343C18.8375 5.7499 15.0993 2.01172 10.5062 2.01172C5.91314 2.01172 2.17078 5.75409 2.17078 10.3472C2.17078 10.98 2.24621 11.596 2.38032 12.1911C2.28812 11.6924 2.23364 11.1811 2.23364 10.6573Z" fill="url(#paint2_linear_1311_1124)"/>
<path d="M7.83257 8.94093C7.83257 8.62663 7.86609 8.32489 7.92476 8.02734C5.97186 8.50928 4.52185 10.2736 4.52185 12.3732C4.52185 14.8416 6.52923 16.8489 8.9976 16.8489C11.1559 16.8489 12.9579 15.3151 13.3812 13.2826C13.0375 13.3664 12.6771 13.4125 12.3083 13.4125C9.83995 13.4125 7.83257 11.4051 7.83257 8.93674V8.94093Z" fill="url(#paint3_linear_1311_1124)"/>
<path d="M12.3125 12.3194C12.719 12.3194 13.1087 12.2482 13.4691 12.1141C13.335 9.80077 11.4324 7.95263 9.09813 7.90234C8.99336 8.22922 8.93469 8.58125 8.93469 8.94166C8.93469 10.8024 10.4476 12.3194 12.3125 12.3194Z" fill="url(#paint4_linear_1311_1124)"/>
<path d="M12.3125 4.46484C10.3722 4.46484 8.72101 5.70531 8.09659 7.43192C8.02534 7.62469 7.97086 7.82585 7.92896 8.0312C8.2726 7.94738 8.63301 7.90128 9.00179 7.90128C9.03532 7.90128 9.06885 7.90128 9.10237 7.90128C9.16523 7.7127 9.24067 7.53249 9.33287 7.36067C9.90281 6.29202 11.0259 5.56702 12.3167 5.56702C14.1774 5.56702 15.6945 7.07989 15.6945 8.94479C15.6945 10.1894 15.0156 11.2791 14.0098 11.8658C14.0265 12.0334 14.0349 12.2052 14.0349 12.3812C14.0349 12.6243 14.0182 12.8674 13.9846 13.102C15.6316 12.4399 16.7966 10.8264 16.7966 8.94898C16.7966 6.48061 14.7893 4.47323 12.3209 4.47323L12.3125 4.46484Z" fill="url(#paint5_linear_1311_1124)"/>
<path d="M7.67754 8.78468C7.67754 8.47037 7.71106 8.16864 7.76974 7.87109C5.81683 8.35303 4.36682 10.1174 4.36682 12.2169C4.36682 14.6853 6.37421 16.6927 8.84257 16.6927C11.0008 16.6927 12.8029 15.1589 13.2261 13.1263C12.8825 13.2101 12.5221 13.2562 12.1533 13.2562C9.68492 13.2562 7.67754 11.2489 7.67754 8.78049V8.78468Z" fill="white"/>
<path d="M12.1574 12.1632C12.5639 12.1632 12.9537 12.0919 13.3141 11.9578C13.18 9.64452 11.2774 7.79638 8.9431 7.74609C8.83833 8.07297 8.77966 8.425 8.77966 8.78541C8.77966 10.6461 10.2925 12.1632 12.1574 12.1632Z" fill="white"/>
<path d="M12.1575 4.30859C10.2172 4.30859 8.56598 5.54907 7.94156 7.27567C7.87031 7.46844 7.81583 7.6696 7.77393 7.87495C8.11757 7.79113 8.47798 7.74503 8.84677 7.74503C8.88029 7.74503 8.91382 7.74503 8.94734 7.74503C9.01021 7.55645 9.08564 7.37625 9.17784 7.20442C9.74778 6.13577 10.8709 5.41077 12.1617 5.41077C14.0224 5.41077 15.5394 6.92364 15.5394 8.78854C15.5394 10.0332 14.8605 11.1228 13.8547 11.7095C13.8715 11.8771 13.8799 12.049 13.8799 12.225C13.8799 12.468 13.8631 12.7111 13.8296 12.9458C15.4766 12.2836 16.6416 10.6702 16.6416 8.79273C16.6416 6.32436 14.6342 4.31698 12.1659 4.31698L12.1575 4.30859Z" fill="white"/>
</g>
<defs>
<linearGradient id="paint0_linear_1311_1124" x1="17.924" y1="3.07603" x2="3.07603" y2="17.924" gradientUnits="userSpaceOnUse">
<stop stop-color="#4070D5"/>
<stop offset="0.21" stop-color="#365FC0"/>
<stop offset="0.65" stop-color="#1C368C"/>
<stop offset="1" stop-color="#06115D"/>
</linearGradient>
<linearGradient id="paint1_linear_1311_1124" x1="0.156203" y1="10.4997" x2="20.8461" y2="10.4997" gradientUnits="userSpaceOnUse">
<stop stop-color="#2954C9"/>
<stop offset="1" stop-color="#4070D5"/>
</linearGradient>
<linearGradient id="paint2_linear_1311_1124" x1="2.17078" y1="7.10352" x2="18.8291" y2="7.10352" gradientUnits="userSpaceOnUse">
<stop stop-color="#4070D5"/>
<stop offset="0.21" stop-color="#365FC0"/>
<stop offset="0.65" stop-color="#1C368C"/>
<stop offset="1" stop-color="#06115D"/>
</linearGradient>
<linearGradient id="paint3_linear_1311_1124" x1="4.52185" y1="12.4402" x2="13.3854" y2="12.4402" gradientUnits="userSpaceOnUse">
<stop stop-color="#4070D5"/>
<stop offset="0.21" stop-color="#365FC0"/>
<stop offset="0.65" stop-color="#1C368C"/>
<stop offset="1" stop-color="#06115D"/>
</linearGradient>
<linearGradient id="paint4_linear_1311_1124" x1="8.93469" y1="10.1109" x2="13.4691" y2="10.1109" gradientUnits="userSpaceOnUse">
<stop stop-color="#4070D5"/>
<stop offset="0.21" stop-color="#365FC0"/>
<stop offset="0.65" stop-color="#1C368C"/>
<stop offset="1" stop-color="#06115D"/>
</linearGradient>
<linearGradient id="paint5_linear_1311_1124" x1="7.92896" y1="8.77716" x2="16.7883" y2="8.77716" gradientUnits="userSpaceOnUse">
<stop stop-color="#4070D5"/>
<stop offset="0.21" stop-color="#365FC0"/>
<stop offset="0.65" stop-color="#1C368C"/>
<stop offset="1" stop-color="#06115D"/>
</linearGradient>
<clipPath id="clip0_1311_1124">
<rect width="21" height="21" fill="white"/>
</clipPath>
</defs>
</svg>
